<svg width="10" height="22" viewBox="0 0 10 22" fill="none" xmlns="http://www.w3.org/2000/svg">
<path d="M9.78087 1.6247C10.1259 1.19343 10.056 0.564141 9.62469 0.219131C9.19343 -0.125878 8.56414 -0.055957 8.21913 0.375305L9.78087 1.6247ZM1 11L0.219131 10.3753C-0.0730437 10.7405 -0.0730437 11.2595 0.219131 11.6247L1 11ZM8.21913 21.6247C8.56414 22.056 9.19343 22.1259 9.62469 21.7809C10.056 21.4359 10.1259 20.8066 9.78087 20.3753L8.21913 21.6247ZM8.21913 0.375305L4.21913 5.37531L5.78087 6.6247L9.78087 1.6247L8.21913 0.375305ZM4.21913 5.37531L0.219131 10.3753L1.78087 11.6247L5.78087 6.6247L4.21913 5.37531ZM0.219131 11.6247L4.21913 16.6247L5.78087 15.3753L1.78087 10.3753L0.219131 11.6247ZM4.21913 16.6247L8.21913 21.6247L9.78087 20.3753L5.78087 15.3753L4.21913 16.6247Z" fill="#141414"/>
</svg>
